<?xml version="1.0" standalone="no"?>
<!DOCTYPE svg PUBLIC "-//W3C//DTD SVG 20010904//EN"
 "http://www.w3.org/TR/2001/REC-SVG-20010904/DTD/svg10.dtd">
<svg version="1.0" xmlns="http://www.w3.org/2000/svg"
 width="1062.000000pt" height="1062.000000pt" viewBox="0 0 1062.000000 1062.000000"
 preserveAspectRatio="xMidYMid meet">
<metadata>
Created by potrace 1.14, written by Peter Selinger 2001-2017
</metadata>
<g transform="translate(0.000000,1062.000000) scale(0.100000,-0.100000)"
fill="#000000" stroke="none">
<path d="M0 5310 l0 -5310 5310 0 5310 0 0 5310 0 5310 -5310 0 -5310 0 0
-5310z m2706 2884 c47 -20 111 -79 137 -128 31 -58 31 -184 0 -242 -87 -163
-286 -200 -421 -79 -111 100 -122 261 -26 373 80 94 198 123 310 76z m1274
-169 c77 -40 77 -163 1 -208 -93 -55 -209 33 -180 136 20 75 107 109 179 72z
m4033 -39 c111 -46 89 -210 -30 -232 -69 -13 -143 50 -143 121 0 42 34 93 73
110 41 18 60 18 100 1z m-1403 -16 c11 -11 20 -29 20 -39 0 -31 -33 -63 -65
-63 -29 0 -65 31 -65 57 0 7 9 24 21 39 25 31 61 34 89 6z m-2595 -1108 c156
-80 196 -289 81 -419 -107 -122 -290 -124 -398 -5 -52 58 -71 105 -71 182 -1
119 76 223 193 261 43 14 152 4 195 -19z m-1287 -84 c27 -18 49 -45 67 -83 54
-109 15 -222 -94 -277 -59 -30 -93 -34 -152 -17 -84 26 -149 113 -149 200 1
78 55 163 125 196 50 22 154 13 203 -19z m2551 -84 c131 -52 83 -245 -57 -231
-71 8 -122 77 -107 146 9 44 65 92 117 100 4 0 25 -6 47 -15z m2791 -49 c54
-52 63 -133 20 -188 -27 -34 -93 -59 -136 -51 -72 13 -128 99 -110 168 8 31
53 85 80 97 41 17 115 4 146 -26z m-1465 -10 c14 -13 25 -33 25 -45 0 -27 -35
-60 -64 -60 -25 0 -66 41 -66 67 0 19 45 63 65 63 9 0 27 -11 40 -25z m-1272
-1055 c170 -64 225 -289 104 -427 -133 -150 -372 -111 -453 74 -25 58 -23 158
5 213 70 137 204 192 344 140z m-2659 -62 c23 -7 59 -30 83 -54 68 -68 81
-154 37 -242 -34 -69 -103 -112 -181 -112 -65 0 -99 13 -142 53 -96 91 -92
235 7 317 58 48 120 60 196 38z m5370 0 c23 -7 59 -30 83 -54 67 -68 81 -154
38 -241 -60 -120 -220 -153 -317 -65 -103 93 -103 237 0 322 58 48 120 60 196
38z m-4042 -115 c75 -76 25 -204 -81 -207 -125 -3 -171 168 -62 230 41 23 107
12 143 -23z m2605 -12 c24 -12 53 -69 53 -103 0 -57 -66 -118 -128 -118 -65 0
-133 83 -118 144 9 38 54 85 89 94 32 9 68 3 104 -17z m36 -1164 c89 -53 136
-134 137 -237 0 -154 -118 -270 -274 -270 -134 0 -266 134 -266 270 0 67 31
134 88 190 68 66 104 80 198 76 56 -2 82 -9 117 -29z m1401 -39 c23 -7 59 -30
83 -54 68 -68 81 -154 37 -242 -34 -69 -103 -112 -181 -112 -65 0 -99 13 -142
53 -96 91 -92 235 7 317 58 48 120 60 196 38z m-5369 -98 c44 -27 69 -81 62
-133 -7 -54 -35 -88 -91 -111 -46 -20 -46 -20 -93 0 -35 14 -54 30 -70 59 -38
67 -26 126 37 179 40 33 107 36 155 6z m2646 -28 c54 -61 44 -147 -22 -186
-61 -36 -130 -17 -169 47 -33 54 -19 112 37 157 42 33 117 24 154 -18z m-1367
-13 c15 -12 26 -30 26 -45 0 -29 -32 -64 -59 -64 -31 0 -63 33 -63 65 0 29 31
65 57 65 7 0 24 -9 39 -21z m4171 -1123 c62 -28 127 -100 144 -158 84 -277
-253 -480 -451 -271 -72 75 -93 205 -49 296 26 55 105 129 153 144 60 20 148
15 203 -11z m-5465 -102 c106 -43 117 -177 20 -242 -28 -19 -44 -23 -84 -19
-41 4 -55 11 -83 40 -38 42 -48 73 -39 122 8 40 63 101 98 108 41 8 47 7 88
-9z m3955 -44 c71 -67 51 -173 -40 -204 -122 -42 -217 115 -122 201 31 28 46
33 95 29 27 -2 52 -12 67 -26z m-2653 -67 c37 -33 10 -103 -40 -103 -33 0 -45
8 -61 38 -29 54 54 108 101 65z"/>
</g>
</svg>
