<svg xmlns="http://www.w3.org/2000/svg" fill="none" viewBox="0 0 148 47"><g fill="#E0DAEE" clip-path="url(#a)"><path d="M2.653 16.507a1.406 1.406 0 1 0 0-2.812 1.406 1.406 0 0 0 0 2.812ZM2.653 25.066a1.406 1.406 0 1 0 0-2.812 1.406 1.406 0 0 0 0 2.812ZM38.56 25.066a1.406 1.406 0 1 0 0-2.812 1.406 1.406 0 0 0 0 2.812ZM11.244 16.29a1.298 1.298 0 1 0 0-2.596 1.298 1.298 0 0 0 0 2.596ZM11.398 24.48a.819.819 0 1 0 0-1.639.819.819 0 0 0 0 1.638ZM11.398 32.822a.417.417 0 1 0 0-.834.417.417 0 0 0 0 .834ZM11.398 41.707a.417.417 0 1 0 0-.835.417.417 0 0 0 0 .835ZM29.105 6.695a.417.417 0 1 0 0-.834.417.417 0 0 0 0 .834ZM29.105 15.58a.417.417 0 1 0 0-.835.417.417 0 0 0 0 .835ZM11.398 7.143a.819.819 0 1 0 0-1.637.819.819 0 0 0 0 1.637ZM20.035 25.206a1.298 1.298 0 1 0 0-2.596 1.298 1.298 0 0 0 0 2.596ZM20.205 33.394a.819.819 0 1 0 0-1.638.819.819 0 0 0 0 1.638ZM20.205 16.059a.819.819 0 1 0 0-1.638.819.819 0 0 0 0 1.638ZM28.75 33.796a1.298 1.298 0 1 0 0-2.596 1.298 1.298 0 0 0 0 2.596ZM28.904 41.985a.819.819 0 1 0 0-1.638.819.819 0 0 0 0 1.638ZM28.904 24.649a.819.819 0 1 0 0-1.638.819.819 0 0 0 0 1.638ZM38.452 7.452a.819.819 0 1 0 0-1.637.819.819 0 0 0 0 1.637ZM2.653 42.031a.927.927 0 1 0 0-1.854.927.927 0 0 0 0 1.854ZM38.56 16.43a.927.927 0 1 0 0-1.855.927.927 0 0 0 0 1.854ZM2.591 33.533a.927.927 0 1 0 0-1.854.927.927 0 0 0 0 1.854ZM38.56 33.92a1.406 1.406 0 1 0 0-2.812 1.406 1.406 0 0 0 0 2.812Z"/><path d="M11.244 16.8a1.808 1.808 0 1 0 0-3.615 1.808 1.808 0 0 0 0 3.615ZM2.591 7.978a1.808 1.808 0 1 0 0-3.616 1.808 1.808 0 0 0 0 3.616ZM28.75 34.306a1.808 1.808 0 1 0 0-3.616 1.808 1.808 0 0 0 0 3.616ZM38.792 43.02a1.808 1.808 0 1 0 0-3.615 1.808 1.808 0 0 0 0 3.615ZM20.205 25.39a1.808 1.808 0 1 0 0-3.615 1.808 1.808 0 0 0 0 3.616Z"/></g><path fill="#E0DAEE" d="M67.891 37V20.558L78.806 37h5.597V11.112h-5.597V27.59L67.89 11.113h-5.597V37h5.597Zm45.833-12.979c0-7.906-5.178-13.363-12.699-13.363-7.487 0-12.664 5.492-12.664 13.398S93.503 37.42 100.99 37.42c7.521 0 12.734-5.493 12.734-13.399Zm-5.982 0c0 4.898-2.519 7.941-6.682 7.941-4.198 0-6.717-2.973-6.717-7.94 0-4.933 2.519-7.907 6.717-7.907 4.163 0 6.682 2.974 6.682 7.906Zm15.598-12.909h-5.668V37h5.668V11.112Zm3.967 7.522c0 4.233 2.379 6.857 6.997 7.801l3.953.805c1.714.35 2.379 1.084 2.379 2.519 0 1.644-1.61 2.658-4.163 2.658-2.519 0-3.918-1.05-3.918-2.938h-5.633c0 4.862 3.743 7.976 9.516 7.976 5.947 0 9.865-3.254 9.865-8.256 0-4.093-2.204-6.297-6.822-7.242l-3.883-.804c-1.819-.385-2.624-1.155-2.624-2.73 0-1.713 1.47-2.763 3.779-2.763 2.134 0 3.498 1.12 3.498 2.939h5.632c0-4.898-3.498-7.976-9.06-7.976-5.563 0-9.516 3.323-9.516 8.01Z"/><defs><clipPath id="a"><path fill="#fff" d="M.783 4.362H40.6V43.02H.783z"/></clipPath></defs></svg>