<svg xmlns="http://www.w3.org/2000/svg" fill="none" viewBox="0 0 28 22"><path fill="#E0DAEE" d="M23.719 1.842A22.554 22.554 0 0 0 17.942 0c-.249.456-.54 1.07-.74 1.56a20.912 20.912 0 0 0-6.402 0C10.6 1.07 10.302.457 10.05 0a22.494 22.494 0 0 0-5.78 1.847C.613 7.454-.378 12.922.118 18.313c2.425 1.838 4.775 2.954 7.085 3.685.57-.797 1.079-1.644 1.517-2.537a14.804 14.804 0 0 1-2.39-1.18c.201-.15.397-.308.586-.47 4.607 2.187 9.613 2.187 14.166 0 .191.162.387.32.585.47-.757.463-1.559.86-2.394 1.183.439.89.945 1.74 1.518 2.536 2.312-.73 4.664-1.847 7.089-3.687.581-6.249-.993-11.667-4.162-16.47ZM9.349 14.998c-1.383 0-2.517-1.31-2.517-2.907 0-1.595 1.11-2.908 2.517-2.908 1.407 0 2.541 1.31 2.517 2.908.002 1.596-1.11 2.907-2.517 2.907Zm9.302 0c-1.383 0-2.517-1.31-2.517-2.907 0-1.595 1.11-2.908 2.517-2.908 1.408 0 2.542 1.31 2.518 2.908 0 1.596-1.11 2.907-2.518 2.907Z"/></svg>