<svg xmlns="http://www.w3.org/2000/svg" fill="none" viewBox="0 0 28 27"><path fill="#E0DAEE" fill-rule="evenodd" d="M14.01 0C6.264 0 0 6.188 0 13.843c0 6.12 4.012 11.298 9.579 13.132.697.137.952-.298.952-.664 0-.32-.023-1.42-.023-2.568-3.897.824-4.709-1.65-4.709-1.65-.625-1.604-1.554-2.017-1.554-2.017-1.277-.847.091-.847.091-.847 1.414.093 2.157 1.42 2.157 1.42 1.253 2.11 3.27 1.514 4.084 1.145.115-.894.488-1.513.88-1.856-3.108-.32-6.378-1.513-6.378-6.829 0-1.513.557-2.75 1.437-3.712-.14-.344-.625-1.764.14-3.668 0 0 1.182-.366 3.852 1.42a13.627 13.627 0 0 1 7.004 0c2.667-1.788 3.851-1.42 3.851-1.42.766 1.901.279 3.324.141 3.668.903.961 1.437 2.199 1.437 3.712 0 5.318-3.27 6.486-6.401 6.829.51.436.952 1.26.952 2.568 0 1.856-.023 3.346-.023 3.805 0 .366.255.802.952.664C23.988 25.14 28 19.963 28 13.843 28.023 6.188 21.736 0 14.013 0h-.003Z" clip-rule="evenodd"/></svg>