<svg xmlns="http://www.w3.org/2000/svg" fill="none" viewBox="0 0 28 22"><path fill="currentColor" d="M28 2.604c-1.03.443-2.137.74-3.3.875A5.6 5.6 0 0 0 27.228.406a11.75 11.75 0 0 1-3.649 1.348A5.828 5.828 0 0 0 19.385 0c-3.709 0-6.434 3.346-5.596 6.819-4.773-.232-9.006-2.442-11.84-5.803-1.504 2.497-.78 5.762 1.777 7.416a5.87 5.87 0 0 1-2.6-.695c-.063 2.573 1.844 4.98 4.607 5.516a5.95 5.95 0 0 1-2.595.094c.73 2.207 2.852 3.812 5.367 3.857-2.415 1.83-5.458 2.648-8.505 2.3A16.67 16.67 0 0 0 8.806 22c10.666 0 16.691-8.71 16.328-16.52A11.49 11.49 0 0 0 28 2.604Z"/></svg>
